<svg width="79" height="18" viewBox="0 0 79 18" fill="none" xmlns="http://www.w3.org/2000/svg">
<path d="M0.444 9.664C0.444 9 0.58 8.412 0.852 7.9C1.132 7.388 1.508 6.992 1.98 6.712C2.46 6.424 2.992 6.28 3.576 6.28C4.008 6.28 4.432 6.376 4.848 6.568C5.272 6.752 5.608 7 5.856 7.312V4.12H7.236V13H5.856V12.004C5.632 12.324 5.32 12.588 4.92 12.796C4.528 13.004 4.076 13.108 3.564 13.108C2.988 13.108 2.46 12.964 1.98 12.676C1.508 12.38 1.132 11.972 0.852 11.452C0.58 10.924 0.444 10.328 0.444 9.664ZM5.856 9.688C5.856 9.232 5.76 8.836 5.568 8.5C5.384 8.164 5.14 7.908 4.836 7.732C4.532 7.556 4.204 7.468 3.852 7.468C3.5 7.468 3.172 7.556 2.868 7.732C2.564 7.9 2.316 8.152 2.124 8.488C1.94 8.816 1.848 9.208 1.848 9.664C1.848 10.12 1.94 10.52 2.124 10.864C2.316 11.208 2.564 11.472 2.868 11.656C3.18 11.832 3.508 11.92 3.852 11.92C4.204 11.92 4.532 11.832 4.836 11.656C5.14 11.48 5.384 11.224 5.568 10.888C5.76 10.544 5.856 10.144 5.856 9.688ZM15.0928 9.532C15.0928 9.78 15.0768 10.004 15.0448 10.204H9.99281C10.0328 10.732 10.2288 11.156 10.5808 11.476C10.9328 11.796 11.3648 11.956 11.8768 11.956C12.6128 11.956 13.1328 11.648 13.4368 11.032H14.9128C14.7128 11.64 14.3488 12.14 13.8208 12.532C13.3008 12.916 12.6528 13.108 11.8768 13.108C11.2448 13.108 10.6768 12.968 10.1728 12.688C9.67681 12.4 9.28481 12 8.99681 11.488C8.71681 10.968 8.57681 10.368 8.57681 9.688C8.57681 9.008 8.71281 8.412 8.98481 7.9C9.26481 7.38 9.65281 6.98 10.1488 6.7C10.6528 6.42 11.2288 6.28 11.8768 6.28C12.5008 6.28 13.0568 6.416 13.5448 6.688C14.0328 6.96 14.4128 7.344 14.6848 7.84C14.9568 8.328 15.0928 8.892 15.0928 9.532ZM13.6648 9.1C13.6568 8.596 13.4768 8.192 13.1248 7.888C12.7728 7.584 12.3368 7.432 11.8168 7.432C11.3448 7.432 10.9408 7.584 10.6048 7.888C10.2688 8.184 10.0688 8.588 10.0048 9.1H13.6648ZM18.9951 11.776L20.8671 6.388H22.3191L19.7991 13H18.1671L15.6591 6.388H17.1231L18.9951 11.776ZM29.0197 7.504H27.7957V13H26.4157V7.504H25.6357V6.388H26.4157V5.92C26.4157 5.16 26.6157 4.608 27.0157 4.264C27.4237 3.912 28.0597 3.736 28.9237 3.736V4.876C28.5077 4.876 28.2157 4.956 28.0477 5.116C27.8797 5.268 27.7957 5.536 27.7957 5.92V6.388H29.0197V7.504ZM30.928 5.512C30.68 5.512 30.472 5.428 30.304 5.26C30.136 5.092 30.052 4.884 30.052 4.636C30.052 4.388 30.136 4.18 30.304 4.012C30.472 3.844 30.68 3.76 30.928 3.76C31.168 3.76 31.372 3.844 31.54 4.012C31.708 4.18 31.792 4.388 31.792 4.636C31.792 4.884 31.708 5.092 31.54 5.26C31.372 5.428 31.168 5.512 30.928 5.512ZM31.6 6.388V13H30.232V6.388H31.6ZM36.7321 6.28C37.2521 6.28 37.7161 6.388 38.1241 6.604C38.5401 6.82 38.8641 7.14 39.0961 7.564C39.3281 7.988 39.4441 8.5 39.4441 9.1V13H38.0881V9.304C38.0881 8.712 37.9401 8.26 37.6441 7.948C37.3481 7.628 36.9441 7.468 36.4321 7.468C35.9201 7.468 35.5121 7.628 35.2081 7.948C34.9121 8.26 34.7641 8.712 34.7641 9.304V13H33.3961V6.388H34.7641V7.144C34.9881 6.872 35.2721 6.66 35.6161 6.508C35.9681 6.356 36.3401 6.28 36.7321 6.28ZM40.7331 9.664C40.7331 9 40.8691 8.412 41.1411 7.9C41.4211 7.388 41.7971 6.992 42.2691 6.712C42.7491 6.424 43.2771 6.28 43.8531 6.28C44.3731 6.28 44.8251 6.384 45.2091 6.592C45.6011 6.792 45.9131 7.044 46.1451 7.348V6.388H47.5251V13H46.1451V12.016C45.9131 12.328 45.5971 12.588 45.1971 12.796C44.7971 13.004 44.3411 13.108 43.8291 13.108C43.2611 13.108 42.7411 12.964 42.2691 12.676C41.7971 12.38 41.4211 11.972 41.1411 11.452C40.8691 10.924 40.7331 10.328 40.7331 9.664ZM46.1451 9.688C46.1451 9.232 46.0491 8.836 45.8571 8.5C45.6731 8.164 45.4291 7.908 45.1251 7.732C44.8211 7.556 44.4931 7.468 44.1411 7.468C43.7891 7.468 43.4611 7.556 43.1571 7.732C42.8531 7.9 42.6051 8.152 42.4131 8.488C42.2291 8.816 42.1371 9.208 42.1371 9.664C42.1371 10.12 42.2291 10.52 42.4131 10.864C42.6051 11.208 42.8531 11.472 43.1571 11.656C43.4691 11.832 43.7971 11.92 44.1411 11.92C44.4931 11.92 44.8211 11.832 45.1251 11.656C45.4291 11.48 45.6731 11.224 45.8571 10.888C46.0491 10.544 46.1451 10.144 46.1451 9.688ZM52.6579 6.28C53.1779 6.28 53.6419 6.388 54.0499 6.604C54.4659 6.82 54.7899 7.14 55.0219 7.564C55.2539 7.988 55.3699 8.5 55.3699 9.1V13H54.0139V9.304C54.0139 8.712 53.8659 8.26 53.5699 7.948C53.2739 7.628 52.8699 7.468 52.3579 7.468C51.8459 7.468 51.4379 7.628 51.1339 7.948C50.8379 8.26 50.6899 8.712 50.6899 9.304V13H49.3219V6.388H50.6899V7.144C50.9139 6.872 51.1979 6.66 51.5419 6.508C51.8939 6.356 52.2659 6.28 52.6579 6.28ZM56.6588 9.688C56.6588 9.008 56.7948 8.412 57.0668 7.9C57.3468 7.38 57.7308 6.98 58.2188 6.7C58.7068 6.42 59.2668 6.28 59.8988 6.28C60.6988 6.28 61.3588 6.472 61.8788 6.856C62.4068 7.232 62.7628 7.772 62.9468 8.476H61.4708C61.3508 8.148 61.1588 7.892 60.8948 7.708C60.6308 7.524 60.2988 7.432 59.8988 7.432C59.3388 7.432 58.8908 7.632 58.5548 8.032C58.2268 8.424 58.0628 8.976 58.0628 9.688C58.0628 10.4 58.2268 10.956 58.5548 11.356C58.8908 11.756 59.3388 11.956 59.8988 11.956C60.6908 11.956 61.2148 11.608 61.4708 10.912H62.9468C62.7548 11.584 62.3948 12.12 61.8668 12.52C61.3388 12.912 60.6828 13.108 59.8988 13.108C59.2668 13.108 58.7068 12.968 58.2188 12.688C57.7308 12.4 57.3468 12 57.0668 11.488C56.7948 10.968 56.6588 10.368 56.6588 9.688ZM70.3702 9.532C70.3702 9.78 70.3542 10.004 70.3222 10.204H65.2702C65.3102 10.732 65.5062 11.156 65.8582 11.476C66.2102 11.796 66.6422 11.956 67.1542 11.956C67.8902 11.956 68.4102 11.648 68.7142 11.032H70.1902C69.9902 11.64 69.6262 12.14 69.0982 12.532C68.5782 12.916 67.9302 13.108 67.1542 13.108C66.5222 13.108 65.9542 12.968 65.4502 12.688C64.9542 12.4 64.5622 12 64.2742 11.488C63.9942 10.968 63.8542 10.368 63.8542 9.688C63.8542 9.008 63.9902 8.412 64.2622 7.9C64.5422 7.38 64.9302 6.98 65.4262 6.7C65.9302 6.42 66.5062 6.28 67.1542 6.28C67.7782 6.28 68.3342 6.416 68.8222 6.688C69.3102 6.96 69.6902 7.344 69.9622 7.84C70.2342 8.328 70.3702 8.892 70.3702 9.532ZM68.9422 9.1C68.9342 8.596 68.7542 8.192 68.4022 7.888C68.0502 7.584 67.6142 7.432 67.0942 7.432C66.6222 7.432 66.2182 7.584 65.8822 7.888C65.5462 8.184 65.3462 8.588 65.2822 9.1H68.9422Z" fill="white"/>
<path d="M23.9051 13.084C23.6571 13.084 23.4491 13 23.2811 12.832C23.1131 12.664 23.0291 12.456 23.0291 12.208C23.0291 11.96 23.1131 11.752 23.2811 11.584C23.4491 11.416 23.6571 11.332 23.9051 11.332C24.1451 11.332 24.3491 11.416 24.5171 11.584C24.6851 11.752 24.7691 11.96 24.7691 12.208C24.7691 12.456 24.6851 12.664 24.5171 12.832C24.3491 13 24.1451 13.084 23.9051 13.084ZM77.3444 10.624C77.3444 11.024 77.2444 11.4 77.0444 11.752C76.8524 12.104 76.5644 12.4 76.1804 12.64C75.8044 12.88 75.3564 13.024 74.8364 13.072V14.044H74.0564V13.072C73.3044 13 72.6964 12.764 72.2324 12.364C71.7684 11.964 71.5364 11.436 71.5364 10.78H73.0004C73.0244 11.092 73.1244 11.352 73.3004 11.56C73.4764 11.76 73.7284 11.888 74.0564 11.944V9.304C73.5204 9.168 73.0844 9.032 72.7484 8.896C72.4124 8.752 72.1244 8.528 71.8844 8.224C71.6524 7.92 71.5364 7.504 71.5364 6.976C71.5364 6.312 71.7684 5.764 72.2324 5.332C72.6964 4.892 73.3044 4.636 74.0564 4.564V3.592H74.8364V4.564C75.5404 4.628 76.1044 4.852 76.5284 5.236C76.9604 5.612 77.2044 6.132 77.2604 6.796H75.7964C75.7724 6.548 75.6764 6.328 75.5084 6.136C75.3404 5.936 75.1164 5.8 74.8364 5.728V8.32C75.3724 8.448 75.8084 8.584 76.1444 8.728C76.4804 8.864 76.7644 9.084 76.9964 9.388C77.2284 9.684 77.3444 10.096 77.3444 10.624ZM72.9284 6.904C72.9284 7.232 73.0244 7.488 73.2164 7.672C73.4164 7.856 73.6964 8.004 74.0564 8.116V5.692C73.7124 5.732 73.4364 5.856 73.2284 6.064C73.0284 6.272 72.9284 6.552 72.9284 6.904ZM74.8364 11.944C75.1884 11.888 75.4644 11.748 75.6644 11.524C75.8644 11.292 75.9644 11.016 75.9644 10.696C75.9644 10.376 75.8644 10.128 75.6644 9.952C75.4724 9.768 75.1964 9.62 74.8364 9.508V11.944Z" fill="#FF2121"/>
</svg>
